<svg width="150" height="150" viewBox="0 0 150 150" fill="none" xmlns="http://www.w3.org/2000/svg">
<path d="M149.5 36.5002L132.5 36.5002L132.5 112L132.5 114L132.5 118.5L119.5 102L119.5 36.5002L102.5 36.5002L126 18.0002L149.5 36.5002Z" fill="white"/>
<path d="M36 0L36 17L111.5 17L113.5 17L118 17L101.5 30L36 30L36 47L17.5 23.5L36 0Z" fill="white"/>
<path d="M0 114H17L17 38.5V36.5V32L30 48.5L30 114L47 114L23.5 132.5L0 114Z" fill="white"/>
<path d="M113.5 150L113.5 133L38 133L36 133L31.5 133L48 120L113.5 120L113.5 103L132 126.5L113.5 150Z" fill="white"/>
</svg>
